<svg width="13" height="13" viewBox="0 0 13 13" fill="none" xmlns="http://www.w3.org/2000/svg">
<path d="M6.5 0.25C3.05 0.25 0.25 3.05 0.25 6.5C0.25 9.95 3.05 12.75 6.5 12.75C9.95 12.75 12.75 9.95 12.75 6.5C12.75 3.05 9.95 0.25 6.5 0.25ZM6.5 2.125C7.5375 2.125 8.375 2.9625 8.375 4C8.375 5.0375 7.5375 5.875 6.5 5.875C5.4625 5.875 4.625 5.0375 4.625 4C4.625 2.9625 5.4625 2.125 6.5 2.125ZM6.5 11C4.9375 11 3.55625 10.2 2.75 8.9875C2.76875 7.74375 5.25 7.0625 6.5 7.0625C7.74375 7.0625 10.2312 7.74375 10.25 8.9875C9.44375 10.2 8.0625 11 6.5 11Z" fill="#25425F"/>
</svg>
