<svg width="11" height="12" viewBox="0 0 11 12" fill="none" xmlns="http://www.w3.org/2000/svg">
<path d="M9.61672 0.508972C9.58535 0.527758 9.41476 0.692663 9.24222 0.876354L8.92654 1.21034L8.71282 1.1832C8.57753 1.16441 8.30302 1.15398 7.9697 1.15398C7.41873 1.15606 7.18345 1.17903 6.75404 1.27087C6.51876 1.32097 6.05798 1.45665 6.05798 1.47544C6.05798 1.49631 9.09516 4.72343 9.10497 4.7109C9.12261 4.69211 9.25202 4.1807 9.29124 3.97196C9.37751 3.51691 9.39908 3.26434 9.40104 2.68821C9.40104 2.33544 9.39123 2.04947 9.37359 1.89918L9.34614 1.66121L9.66181 1.32514C9.83436 1.13937 9.98926 0.957762 10.0069 0.920189C10.1265 0.665526 9.85397 0.377466 9.61672 0.508972Z" fill="#002E6E"/>
<path d="M5.22513 1.87013C4.7918 2.13731 4.52122 2.36275 4.14476 2.77397C3.49772 3.4816 3.18204 4.04311 2.69578 5.34982C2.45657 5.98856 2.21344 6.59599 2.09775 6.84439L2.04089 6.96129L2.99577 7.97576L3.95065 8.99023L4.01927 8.95057C4.21731 8.84203 4.78396 8.5811 5.41728 8.31183C6.2251 7.9695 6.65058 7.75241 6.98979 7.51445C7.57409 7.1074 8.14858 6.52711 8.49759 5.99065C8.63877 5.77564 8.84268 5.40409 8.84268 5.36025C8.84268 5.3185 5.48983 1.74906 5.45061 1.74906C5.43296 1.74906 5.33297 1.80333 5.22513 1.87013ZM6.05256 3.57553C6.57019 3.70286 7.00155 4.16417 7.13096 4.72986C7.17998 4.94277 7.1741 5.28719 7.1192 5.49385C6.98195 6.01987 6.63882 6.40186 6.14667 6.58347C6.0055 6.63774 5.96432 6.64191 5.71531 6.644C5.48002 6.644 5.41924 6.63774 5.29375 6.59599C4.87416 6.45614 4.57024 6.17851 4.38201 5.76729C4.17809 5.32059 4.1879 4.78831 4.40554 4.3583C4.6271 3.92204 5.02709 3.62354 5.49963 3.54213C5.62708 3.52126 5.8957 3.53587 6.05256 3.57553Z" fill="#002E6E"/>
<path d="M5.53073 4.17243C5.40329 4.19957 5.21309 4.29976 5.11702 4.39161C4.82683 4.66923 4.7386 5.13055 4.90722 5.49167C5.23858 6.20555 6.17582 6.20555 6.49345 5.49375C6.65227 5.13263 6.58757 4.71933 6.32679 4.43753C6.11503 4.21209 5.81896 4.1119 5.53073 4.17243Z" fill="#002E6E"/>
<path d="M2.00344 4.76464C1.68776 4.82517 1.4211 4.93789 1.1564 5.12367C1.0368 5.20925 0.85837 5.38042 0.525045 5.7311C0.270149 6.00038 0.0466255 6.25086 0.0289789 6.28844C-0.0298431 6.42412 0.00152865 6.55771 0.117212 6.65999C0.213288 6.74766 0.285835 6.74975 0.51328 6.6746C0.828959 6.57023 1.16817 6.56815 1.48188 6.66417C1.51718 6.67669 1.53286 6.65582 1.59757 6.50344C1.80737 6.02125 1.93873 5.68518 2.25637 4.83143L2.29363 4.73333L2.21912 4.73541C2.17991 4.73541 2.08187 4.75002 2.00344 4.76464Z" fill="#002E6E"/>
<path d="M1.75088 7.84525C1.51363 7.88699 1.27246 8.02894 1.10972 8.22098C0.915605 8.45059 0.684239 9.07472 0.490126 9.90551C0.36856 10.4294 0.364639 10.4566 0.392089 10.5443C0.419539 10.6361 0.52738 10.7384 0.613652 10.7551C0.686199 10.7697 1.01756 10.6925 1.48814 10.5526C1.9195 10.4253 2.20185 10.3167 2.46459 10.179C2.66654 10.0725 2.71948 10.0349 2.81948 9.92012C3.18418 9.50681 3.23123 8.85763 2.9332 8.37962C2.68223 7.97884 2.20773 7.76384 1.75088 7.84525Z" fill="#002E6E"/>
<path d="M5.47972 8.95822C4.97189 9.1774 4.53465 9.3757 4.3072 9.49468C4.23073 9.53434 4.21505 9.55104 4.22485 9.58653C4.31504 9.91425 4.31308 10.2816 4.21701 10.6073C4.14446 10.8494 4.14446 10.8724 4.19544 10.9851C4.26406 11.1375 4.43465 11.2022 4.57778 11.1291C4.61308 11.1124 4.84836 10.8745 5.1013 10.6031C5.70324 9.95391 5.84834 9.72012 5.9699 9.21288C6.01108 9.03754 6.05422 8.71817 6.03657 8.72026C6.03265 8.72235 5.78167 8.8288 5.47972 8.95822Z" fill="#002E6E"/>
</svg>
