<svg width="13" height="13" viewBox="0 0 13 13" fill="none" xmlns="http://www.w3.org/2000/svg">
<path d="M10.25 9.05C9.775 9.05 9.35 9.2375 9.025 9.53125L4.56875 6.9375C4.6 6.79375 4.625 6.65 4.625 6.5C4.625 6.35 4.6 6.20625 4.56875 6.0625L8.975 3.49375C9.3125 3.80625 9.75625 4 10.25 4C11.2875 4 12.125 3.1625 12.125 2.125C12.125 1.0875 11.2875 0.25 10.25 0.25C9.2125 0.25 8.375 1.0875 8.375 2.125C8.375 2.275 8.4 2.41875 8.43125 2.5625L4.025 5.13125C3.6875 4.81875 3.24375 4.625 2.75 4.625C1.7125 4.625 0.875 5.4625 0.875 6.5C0.875 7.5375 1.7125 8.375 2.75 8.375C3.24375 8.375 3.6875 8.18125 4.025 7.86875L8.475 10.4688C8.44375 10.6 8.425 10.7375 8.425 10.875C8.425 11.8813 9.24375 12.7 10.25 12.7C11.2563 12.7 12.075 11.8813 12.075 10.875C12.075 9.86875 11.2563 9.05 10.25 9.05Z" fill="#25425F"/>
</svg>
